<?xml version="1.0" encoding="iso-8859-1"?>
<!-- Generator: Adobe Illustrator 19.0.0, SVG Export Plug-In . SVG Version: 6.00 Build 0)  -->
<svg version="1.1" id="Layer_1" xmlns="http://www.w3.org/2000/svg" xmlns:xlink="http://www.w3.org/1999/xlink" x="0px" y="0px"
	 viewBox="0 0 512.002 512.002" style="enable-background:new 0 0 512.002 512.002;" xml:space="preserve">
<g>
	<g>
		<path d="M334.64,333.297c0.001-0.006,0.001-0.006-0.01-0.011c-3.143-3.154-7.342-4.89-11.802-4.89
			c-4.46,0-8.658,1.735-11.802,4.89c-3.165,3.165-4.905,7.358-4.905,11.817c0,4.46,1.741,8.653,4.895,11.807
			c6.309,6.331,17.328,6.32,23.614,0.011c3.165-3.165,4.905-7.358,4.905-11.818C339.535,340.645,337.794,336.451,334.64,333.297z"/>
	</g>
</g>
<g>
	<g>
		<path d="M212.122,144.112c0-0.006,0-0.006-0.011-0.011c-3.143-3.154-7.342-4.89-11.802-4.89c-4.46,0-8.658,1.735-11.802,4.89
			c-3.165,3.165-4.905,7.358-4.905,11.817c0,4.465,1.741,8.658,4.895,11.818c6.309,6.31,17.316,6.31,23.625,0.001
			c3.154-3.16,4.895-7.353,4.895-11.818C217.018,151.46,215.277,147.267,212.122,144.112z"/>
	</g>
</g>
<g>
	<g>
		<path d="M437.108,74.898c-99.869-99.858-262.345-99.858-362.214,0c-99.858,99.858-99.858,262.339,0,362.203
			c49.934,49.929,115.521,74.896,181.107,74.896s131.173-24.967,181.107-74.896C536.966,337.243,536.966,174.762,437.108,74.898z
			 M164.873,120.477c9.452-9.463,22.048-14.679,35.437-14.679s25.985,5.216,35.448,14.689c9.463,9.463,14.673,22.048,14.673,35.432
			c0,13.389-5.21,25.974-14.684,35.442c-9.463,9.468-22.048,14.679-35.437,14.679s-25.974-5.21-35.437-14.679
			c-9.474-9.469-14.684-22.053-14.684-35.442S155.399,129.946,164.873,120.477z M173.303,362.322
			c-3.263,3.263-7.538,4.895-11.812,4.895s-8.55-1.632-11.812-4.895c-6.528-6.52-6.528-17.104-0.001-23.624l189.021-189.021
			c6.526-6.526,17.099-6.526,23.625,0c6.526,6.52,6.526,17.104,0,23.625L173.303,362.322z M358.266,380.547
			c-9.452,9.463-22.048,14.679-35.437,14.679c-13.389,0-25.985-5.216-35.448-14.689c-9.463-9.457-14.673-22.042-14.673-35.432
			s5.21-25.974,14.684-35.442c9.452-9.463,22.048-14.679,35.437-14.679c13.389,0,25.985,5.216,35.448,14.689
			c9.463,9.463,14.673,22.048,14.673,35.432C372.95,358.493,367.74,371.078,358.266,380.547z"/>
	</g>
</g>
<g>
</g>
<g>
</g>
<g>
</g>
<g>
</g>
<g>
</g>
<g>
</g>
<g>
</g>
<g>
</g>
<g>
</g>
<g>
</g>
<g>
</g>
<g>
</g>
<g>
</g>
<g>
</g>
<g>
</g>
</svg>
