<?xml version="1.0" encoding="iso-8859-1"?>
<!-- Generator: Adobe Illustrator 18.0.0, SVG Export Plug-In . SVG Version: 6.00 Build 0)  -->
<!DOCTYPE svg PUBLIC "-//W3C//DTD SVG 1.1//EN" "http://www.w3.org/Graphics/SVG/1.1/DTD/svg11.dtd">
<svg version="1.1" id="Capa_1" xmlns="http://www.w3.org/2000/svg" xmlns:xlink="http://www.w3.org/1999/xlink" x="0px" y="0px"
	 viewBox="0 0 60 60" style="enable-background:new 0 0 60 60;" xml:space="preserve">
<g>
	<path d="M5.119,12.498c0.138,0,0.277-0.028,0.411-0.089c0.52-0.235,1.071-0.395,1.639-0.473c0.547-0.075,0.93-0.579,0.854-1.127
		c-0.075-0.547-0.569-0.936-1.127-0.854C6.138,10.06,5.4,10.272,4.706,10.587c-0.503,0.228-0.727,0.82-0.499,1.323
		C4.374,12.279,4.738,12.498,5.119,12.498z"/>
	<path d="M11.029,11.879h2c0.553,0,1-0.447,1-1s-0.447-1-1-1h-2c-0.553,0-1,0.447-1,1S10.477,11.879,11.029,11.879z"/>
	<path d="M42.942,5.879l-5.436-5.436c-0.43-0.43-1.18-0.43-1.609,0L33.851,2.49l-2.046-2.046c-0.43-0.43-1.18-0.43-1.609,0
		L24.76,5.879H8c-4.411,0-8,3.589-8,8v4c0-0.417,0.255-0.773,0.617-0.923c0.377,0.902,0.919,1.716,1.581,2.415
		c0.017,0.065,0.024,0.133,0.043,0.197c0.156,0.53-0.147,1.086-0.677,1.241c-0.095,0.028-0.189,0.041-0.282,0.041
		c-0.433,0-0.831-0.282-0.959-0.718C0.108,19.403,0,18.646,0,17.879v30c0-0.553,0.447-1,1-1s1,0.447,1,1
		c0,0.575,0.081,1.144,0.241,1.689c0.156,0.53-0.147,1.086-0.677,1.241c-0.095,0.028-0.189,0.041-0.282,0.041
		c-0.433,0-0.831-0.282-0.959-0.718C0.108,49.403,0,48.646,0,47.879v4.848c0,3.943,3.209,7.152,7.152,7.152H60v-5
		c0,0.553-0.447,1-1,1h-2c-0.553,0-1-0.447-1-1s0.447-1,1-1h2c0.553,0,1,0.447,1,1v-6.5H47c-5.238,0-9.5-4.262-9.5-9.5
		s4.262-9.5,9.5-9.5h13v-4.5c0,0.553-0.447,1-1,1h-2c-0.553,0-1-0.447-1-1s0.447-1,1-1h2c0.553,0,1,0.447,1,1v-3v-2v-14H42.942z
		 M51,53.879h2c0.553,0,1,0.447,1,1s-0.447,1-1,1h-2c-0.553,0-1-0.447-1-1S50.447,53.879,51,53.879z M45,53.879h2
		c0.553,0,1,0.447,1,1s-0.447,1-1,1h-2c-0.553,0-1-0.447-1-1S44.447,53.879,45,53.879z M39,53.879h2c0.553,0,1,0.447,1,1
		s-0.447,1-1,1h-2c-0.553,0-1-0.447-1-1S38.447,53.879,39,53.879z M36.702,2.467l3.412,3.412l14,14h-5.391L37.456,8.611
		c-0.203-0.197-0.471-0.306-0.754-0.306L36.23,8.329l-11.55,11.55H19.29L35.266,3.904l0,0L36.702,2.467z M31,2.467l1.437,1.437
		L16.462,19.879h-2.874l14-14L31,2.467z M8,7.879h14.76l-2.776,2.776c-0.104-0.441-0.482-0.776-0.955-0.776h-2c-0.553,0-1,0.447-1,1
		s0.447,1,1,1h1.73l-8,8H8c-2.603,0-4.818-1.669-5.647-3.991c0.157-0.446,0.353-0.876,0.611-1.27
		c0.303-0.462,0.173-1.082-0.29-1.384c-0.19-0.124-0.406-0.158-0.616-0.144C2.446,10.154,4.96,7.879,8,7.879z M6.001,54.664
		c-0.168,0.367-0.53,0.584-0.91,0.584c-0.139,0-0.28-0.029-0.415-0.091c-0.693-0.317-1.337-0.731-1.914-1.231
		c-0.417-0.362-0.462-0.994-0.101-1.411c0.363-0.417,0.994-0.462,1.411-0.101c0.433,0.376,0.916,0.687,1.436,0.925
		C6.01,53.568,6.23,54.162,6.001,54.664z M6.001,24.664c-0.168,0.367-0.53,0.584-0.91,0.584c-0.139,0-0.28-0.029-0.415-0.091
		c-0.693-0.317-1.337-0.731-1.914-1.231c-0.417-0.362-0.462-0.994-0.101-1.411c0.363-0.417,0.994-0.462,1.411-0.101
		c0.433,0.376,0.916,0.687,1.436,0.925C6.01,23.568,6.23,24.162,6.001,24.664z M11,55.879H9c-0.553,0-1-0.447-1-1s0.447-1,1-1h2
		c0.553,0,1,0.447,1,1S11.553,55.879,11,55.879z M11,25.879H9c-0.553,0-1-0.447-1-1s0.447-1,1-1h2c0.553,0,1,0.447,1,1
		S11.553,25.879,11,25.879z M17,55.879h-2c-0.553,0-1-0.447-1-1s0.447-1,1-1h2c0.553,0,1,0.447,1,1S17.553,55.879,17,55.879z
		 M17,25.879h-2c-0.553,0-1-0.447-1-1s0.447-1,1-1h2c0.553,0,1,0.447,1,1S17.553,25.879,17,25.879z M23,55.879h-2
		c-0.553,0-1-0.447-1-1s0.447-1,1-1h2c0.553,0,1,0.447,1,1S23.553,55.879,23,55.879z M23,25.879h-2c-0.553,0-1-0.447-1-1
		s0.447-1,1-1h2c0.553,0,1,0.447,1,1S23.553,25.879,23,25.879z M29,55.879h-2c-0.553,0-1-0.447-1-1s0.447-1,1-1h2
		c0.553,0,1,0.447,1,1S29.553,55.879,29,55.879z M29,25.879h-2c-0.553,0-1-0.447-1-1s0.447-1,1-1h2c0.553,0,1,0.447,1,1
		S29.553,25.879,29,25.879z M35,55.879h-2c-0.553,0-1-0.447-1-1s0.447-1,1-1h2c0.553,0,1,0.447,1,1S35.553,55.879,35,55.879z
		 M35,25.879h-2c-0.553,0-1-0.447-1-1s0.447-1,1-1h2c0.553,0,1,0.447,1,1S35.553,25.879,35,25.879z M41,25.879h-2
		c-0.553,0-1-0.447-1-1s0.447-1,1-1h2c0.553,0,1,0.447,1,1S41.553,25.879,41,25.879z M47,25.879h-2c-0.553,0-1-0.447-1-1
		s0.447-1,1-1h2c0.553,0,1,0.447,1,1S47.553,25.879,47,25.879z M53,25.879h-2c-0.553,0-1-0.447-1-1s0.447-1,1-1h2
		c0.553,0,1,0.447,1,1S53.553,25.879,53,25.879z M56.942,19.879l-8-8H49c0.553,0,1-0.447,1-1s-0.447-1-1-1h-2
		c-0.017,0-0.031,0.009-0.048,0.01l-2.01-2.01H58v12H56.942z"/>
	<path d="M55,9.879h-2c-0.553,0-1,0.447-1,1s0.447,1,1,1h2c0.553,0,1-0.447,1-1S55.553,9.879,55,9.879z"/>
	<path d="M40,38.879c0,3.859,3.141,7,7,7h13v-14H47C43.141,31.879,40,35.02,40,38.879z M52,38.879c0,2.206-1.794,4-4,4s-4-1.794-4-4
		s1.794-4,4-4S52,36.673,52,38.879z"/>
</g>
<g>
</g>
<g>
</g>
<g>
</g>
<g>
</g>
<g>
</g>
<g>
</g>
<g>
</g>
<g>
</g>
<g>
</g>
<g>
</g>
<g>
</g>
<g>
</g>
<g>
</g>
<g>
</g>
<g>
</g>
</svg>
